<?xml version="1.0" encoding="UTF-8" standalone="no"?>
<svg
   width="198.42578pt"
   height="198.4258pt"
   viewBox="0 0 198.42577 198.4258"
   version="1.1"
   id="svg7"
   sodipodi:docname="school-of-engineering.eps"
   xmlns:inkscape="http://www.inkscape.org/namespaces/inkscape"
   xmlns:sodipodi="http://sodipodi.sourceforge.net/DTD/sodipodi-0.dtd"
   xmlns="http://www.w3.org/2000/svg"
   xmlns:svg="http://www.w3.org/2000/svg">
  <sodipodi:namedview
     id="namedview7"
     pagecolor="#ffffff"
     bordercolor="#000000"
     borderopacity="0.25"
     inkscape:showpageshadow="2"
     inkscape:pageopacity="0.0"
     inkscape:pagecheckerboard="0"
     inkscape:deskcolor="#d1d1d1"
     inkscape:document-units="pt">
    <inkscape:page
       x="0"
       y="1.7618835e-17"
       width="198.42578"
       height="198.42578"
       id="page2"
       margin="0"
       bleed="0" />
  </sodipodi:namedview>
  <defs
     id="defs1" />
  <path
     fill-rule="nonzero"
     fill="#80171b"
     fill-opacity="1"
     d="M 0,198.42578 H 198.42578 V 0 H 0 v 198.42578"
     id="path2" />
  <path
     fill-rule="nonzero"
     fill="#ffffff"
     fill-opacity="1"
     d="m 150.24219,76.074218 -37.89453,22.0625 C 105.46875,102.10547 99.417969,91.660156 106.30078,87.6875 l 37.89844,-22.054688 c 6.88672,-3.976562 12.91797,6.472656 6.04297,10.441406 M 46.28125,76.21875 84.59375,97.945312 C 91.464844,101.91016 97.5,91.453125 90.613281,87.476562 L 52.292969,65.761718 C 45.414062,61.789062 39.398438,72.246094 46.28125,76.21875 m 45.945312,79.79297 -0.0039,-44.07422 c 0,-3.33984 2.710938,-6.03515 6.039063,-6.03515 3.332035,0 6.031255,2.70312 6.031255,6.03515 l -0.004,44.07422 c 0,3.32813 -2.6914,6.03125 -6.027345,6.03125 -3.335938,0 -6.035157,-2.69922 -6.035157,-6.03125 m -37.925781,-23.54297 18.402344,-10.4375 c 6.886719,-3.97656 0.847656,-14.42968 -6.027344,-10.46093 L 48.27726,122.01563 c -6.878906,3.97266 -0.859375,14.42578 6.023437,10.45312 m 91.804773,0.34375 -17.91797,-10.80859 c -6.87891,-3.96875 -0.83203,-14.41797 6.05469,-10.44141 l 17.91406,10.8125 c 6.87109,3.96875 0.83984,14.41407 -6.05078,10.4375 M 98.253906,36.382812 c -3.335937,0 -6.027344,2.707032 -6.027344,6.035156 l -0.0039,21.15625 c 0,3.332032 2.699219,6.035157 6.03125,6.035157 3.328128,0 6.039068,-2.699219 6.039068,-6.035157 l -0.004,-21.15625 c 0,-3.332031 -2.70312,-6.035156 -6.035158,-6.035156"
     id="path3" />
</svg>
