<?xml version="1.0" encoding="UTF-8" standalone="no" ?>
<!DOCTYPE svg PUBLIC "-//W3C//DTD SVG 1.1//EN" "http://www.w3.org/Graphics/SVG/1.1/DTD/svg11.dtd">
<svg xmlns="http://www.w3.org/2000/svg" xmlns:xlink="http://www.w3.org/1999/xlink" version="1.1" width="1080" height="1080" viewBox="0 0 1080 1080" xml:space="preserve">
<desc>Created with Fabric.js 5.2.4</desc>
<defs>
</defs>
<rect x="0" y="0" width="100%" height="100%" fill="transparent"></rect>
<g transform="matrix(1 0 0 1 540 540)" id="f703525e-8d83-436f-acc1-7280ac8e0a05"  >
<rect style="stroke: none; stroke-width: 1; stroke-dasharray: none; stroke-linecap: butt; stroke-dashoffset: 0; stroke-linejoin: miter; stroke-miterlimit: 4; fill: rgb(255,255,255); fill-rule: nonzero; opacity: 1; visibility: hidden;" vector-effect="non-scaling-stroke"  x="-540" y="-540" rx="0" ry="0" width="1080" height="1080" />
</g>
<g transform="matrix(1 0 0 1 540 540)" id="bf7797a3-821d-4d46-994d-910a58e92cef"  >
</g>
<g transform="matrix(2.02 0 0 2.02 546.35 544.98)" id="7d4d64c8-3499-4ffc-af6b-a2bdb1c1896c"  >
<path style="stroke: rgb(0,0,0); stroke-width: 0; stroke-dasharray: none; stroke-linecap: butt; stroke-dashoffset: 0; stroke-linejoin: miter; stroke-miterlimit: 4; fill: rgb(255,255,255); fill-rule: nonzero; opacity: 1;" vector-effect="non-scaling-stroke"  transform=" translate(-256, -256)" d="M 510.678 112.275 C 508.37 100.649 503.215 90.01 496.016 81.221 C 494.49800000000005 79.306 492.91200000000003 77.59100000000001 491.19300000000004 75.876 C 478.43800000000005 63.05800000000001 460.53600000000006 55.062000000000005 440.97900000000004 55.062000000000005 L 71.021 55.062000000000005 C 51.464 55.062000000000005 33.626 63.05800000000001 20.811 75.876 C 19.096 77.59100000000001 17.509999999999998 79.30600000000001 15.988 81.221 C 8.785 90.009 3.63 100.649 1.386 112.275 C 0.464 116.762 0 121.399 0 126.087 L 0 385.92 C 0 395.88800000000003 2.114 405.47 5.884 414.123 C 9.381 422.383 14.537 429.85699999999997 20.810000000000002 436.12399999999997 C 22.400000000000002 437.71 23.979000000000003 439.16799999999995 25.702 440.61799999999994 C 37.988 450.79299999999995 53.847 456.93799999999993 71.021 456.93799999999993 L 440.97900000000004 456.93799999999993 C 458.15900000000005 456.93799999999993 474.08700000000005 450.79299999999995 486.302 440.5539999999999 C 488.02000000000004 439.1679999999999 489.607 437.7099999999999 491.19300000000004 436.1239999999999 C 497.463 429.8569999999999 502.61800000000005 422.3829999999999 506.187 414.12299999999993 L 506.187 414.0589999999999 C 509.956 405.4059999999999 511.999 395.8879999999999 511.999 385.92099999999994 L 511.999 126.087 C 512 121.399 511.543 116.762 510.678 112.275 z M 46.509 101.571 C 52.854 95.233 61.375 91.396 71.021 91.396 L 440.97900000000004 91.396 C 450.62500000000006 91.396 459.22100000000006 95.233 465.49100000000004 101.571 C 466.61300000000006 102.7 467.67 103.958 468.60300000000007 105.208 L 274.696 274.203 C 269.348 278.89 262.742 281.205 256 281.205 C 249.326 281.205 242.724 278.89 237.305 274.203 L 43.472 105.136 C 44.33 103.886 45.387 102.7 46.509 101.571 z M 36.334 385.92 L 36.334 142.735 L 176.658 265.15 L 36.405 387.435 C 36.334 386.971 36.334 386.449 36.334 385.92 z M 440.979 420.597 L 71.021 420.597 C 64.74 420.597 58.863 418.94599999999997 53.847 416.04499999999996 L 201.82500000000002 287.08599999999996 L 215.64000000000001 299.1039999999999 C 227.20100000000002 309.1499999999999 241.668 314.23799999999994 256 314.23799999999994 C 270.406 314.23799999999994 284.872 309.1499999999999 296.432 299.1039999999999 L 310.24 287.0859999999999 L 458.15999999999997 416.0449999999999 C 453.137 418.946 447.26 420.597 440.979 420.597 z M 475.666 385.92 C 475.666 386.449 475.666 386.971 475.598 387.435 L 335.346 265.221 L 475.666 142.8 L 475.666 385.92 z" stroke-linecap="round" />
</g>
</svg>